# AST/ASF file generated using VICON BodyLanguage
# -----------------------------------------------
:version 1.10
:name VICON
:units
  mass 1.0
  length 0.45
  angle deg
:documentation
   .ast/.asf automatically generated from VICON data using
   VICON BodyBuilder and BodyLanguage model FoxedUp or BRILLIANT.MOD
:root
   order TX TY TZ RX RY RZ
   axis XYZ
   position 0 0 0  
   orientation 0 0 0 
:bonedata
  begin
     id 1 
     name lhipjoint
     direction 0.558404 -0.748506 0.357664 
     length 2.4234 
     axis 0 0 0  XYZ
  end
  begin
     id 2 
     name lfemur
     direction 0.34202 -0.939693 0  
     length 7.14567  
     axis 0 0 20  XYZ
    dof rx ry rz
    limits (-160.0 20.0)
           (-70.0 70.0)
           (-60.0 70.0)
  end
  begin
     id 3 
     name ltibia
     direction 0.34202 -0.939693 0   
     length 8.13956   
     axis 0 0 20   XYZ
    dof rx
    limits (-10.0 170.0)
  end
  begin
     id 4 
     name lfoot
     direction 0.0791314 -0.217412 0.972867   
     length 2.00134   
     axis -90 7.62852e-016 20   XYZ
    dof rx rz
    limits (-45.0 90.0)
           (-70.0 20.0)
  end
  begin
     id 5 
     name ltoes
     direction 1.53547e-011 -4.21922e-011 1   
     length 1.00735   
     axis -90 7.62852e-016 20   XYZ
    dof rx
    limits (-90.0 20.0)
  end
  begin
     id 6 
     name rhipjoint
     direction -0.496392 -0.78327 0.374276   
     length 2.31584  
     axis 0 0 0  XYZ 
  end
  begin
     id 7 
     name rfemur
     direction -0.34202 -0.939693 0   
     length 7.47417   
     axis 0 0 -20   XYZ
    dof rx ry rz
    limits (-160.0 20.0)
           (-70.0 70.0)
           (-70.0 60.0)
  end
  begin
     id 8 
     name rtibia
     direction -0.34202 -0.939693 0   
     length 7.69071   
     axis 0 0 -20   XYZ
    dof rx
    limits (-10.0 170.0)
 end
 begin
     id 9 
     name rfoot
     direction -0.103069 -0.28318 0.953512   
     length 2.16135  
     axis -90 -7.62852e-016 -20   XYZ
    dof rx rz
    limits (-45.0 90.0)
           (-20.0 70.0)
  end
  begin
     id 10 
     name rtoes
     direction -1.53581e-011 -4.21904e-011 1   
     length 1.07867   
     axis -90 -7.62852e-016 -20   XYZ
    dof rx
    limits (-90.0 20.0)
  end
  begin
     id 11 
     name lowerback
     direction -0.0258961 0.994776 -0.0987407   
     length 2.19412   
     axis 0 0 0   XYZ
    dof rx ry rz
    limits (-20.0 45.0)
           (-30.0 30.0)
           (-30.0 30.0)
  end
  begin
     id 12 
     name upperback
     direction 0.0402454 0.999185 0.00320666   
     length 2.18445   
     axis 0 0 0   XYZ
    dof rx ry rz
    limits (-20.0 45.0)
           (-30.0 30.0)
           (-30.0 30.0)
  end
  begin
     id 13 
     name thorax
     direction 0.0519376 0.997415 0.0496558   
     length 2.21487   
     axis 0 0 0   XYZ
    dof rx ry rz
    limits (-20.0 45.0)
           (-30.0 30.0)
           (-30.0 30.0)
  end
  begin
     id 14 
     name lowerneck
     direction -0.0921276 0.983211 0.157506   
     length 1.61201   
     axis 0 0 0   XYZ
    dof rx ry rz
    limits (-20.0 45.0)
           (-30.0 30.0)
           (-30.0 30.0)
  end
  begin
     id 15 
     name upperneck
     direction 0.0820814 0.98162 -0.172292   
     length 1.65275   
     axis 0 0 0   XYZ
    dof rx ry rz
    limits (-20.0 45.0)
           (-30.0 30.0)
           (-30.0 30.0)
  end
  begin
     id 16
     name head
     direction 0.0336554 0.996413 -0.0776455  
     length 1.66415  
     axis 0 0 0   XYZ
    dof rx ry rz
    limits (-20.0 45.0)
           (-30.0 30.0)
           (-30.0 30.0)
  end
  begin
     id 17 
     name lclavicle
     direction 0.94696 0.284418 -0.149576  
     length 3.41447  
     axis 0 0 0   XYZ
    dof ry rz
    limits (-20.0 10.0)
           (0.0 20.0)
  end
  begin
     id 18 
     name lhumerus
     direction 1 -0.000130264 -9.81312e-005   
     length 5.19964   
     axis 180 -30 -90   XYZ
    dof rx ry rz
    limits (-60.0 90.0)
           (-90.0 90.0)
           (-90.0 90.0)
  end
  begin
     id 19
     name lradius
     direction 1 -4.48961e-011 1.43854e-026   
     length 3.32189   
     axis 180 -30 -90   XYZ
    dof rx
    limits (-10.0 170.0)
  end
  begin
     id 20
     name lwrist
     direction 1 -4.48958e-011 3.1502e-026   
     length 1.66095   
     axis -1.97692e-014 90 90   XYZ
    dof ry
    limits (-180.0 0.0)
 end
  begin
     id 21 
     name lhand
     direction 1 -4.48927e-011 6.3004e-026   
     length 0.645616   
     axis -4.02019e-014 90 90   XYZ
    dof rx rz
    limits (-90.0 90.0)
           (-45.0 45.0)
  end
  begin
     id 22 
     name lfingers
     direction 1 -4.4904e-011 1.26008e-025   
     length 0.520512   
     axis -8.04039e-014 90 90   XYZ
    dof rx
    limits (0.0 90.0)
  end
  begin
     id 23
     name lthumb
     direction 0.707107 -6.34947e-011 0.707107   
     length 0.747354   
     axis -90 45 2.85299e-015   XYZ
    dof rx rz
    limits (-45.0 45.0)
           (-45.0 45.0)
  end
  begin
     id 24 
     name rclavicle
     direction -0.909391 0.383475 -0.161107   
     length 3.25176  
     axis 0 0 0   XYZ 
    dof ry rz
    limits (-10.0 20.0)
           (-20.0 0.0)
  end
  begin
     id 25 
     name rhumerus
     direction -1 -4.48965e-011 -1.81384e-027  
     length 5.6595   
     axis 180 30 90   XYZ
    dof rx ry rz
    limits (-90.0 60.0)
           (-90.0 90.0)
           (-90.0 90.0)
  end
  begin
     id 26 
     name rradius
     direction -1 -4.48996e-011 -8.09397e-027   
     length 3.37604   
     axis 180 30 90   XYZ
    dof rx
    limits (-10.0 170.0)
  end
  begin
     id 27 
     name rwrist
     direction -1 -4.48927e-011 -1.56669e-026   
     length 1.68802   
     axis 1.21142e-014 -90 -90   XYZ
    dof ry
    limits (-180.0 0.0)
  end
  begin
     id 28
     name rhand
     direction -1 -4.48912e-011 -3.13339e-026   
     length 0.824702   
     axis 1.99937e-014 -90 -90   XYZ
    dof rx rz
    limits (-90.0 90.0)
           (-45.0 45.0)
  end
  begin
     id 29
     name rfingers
     direction -1 -4.49011e-011 -6.26677e-026   
     length 0.664896   
     axis 3.99874e-014 -90 -90   XYZ
    dof rx
    limits (0.0 90.0)
  end
  begin
     id 30
     name rthumb
     direction -0.707107 -6.34931e-011 0.707107   
     length 0.954662   
     axis -90 -45 -2.85299e-015   XYZ
    dof rx rz
    limits (-45.0 45.0)
           (-45.0 45.0)
  end
:hierarchy
  begin
    root lhipjoint rhipjoint lowerback
    lhipjoint lfemur
    lfemur ltibia
    ltibia lfoot
    lfoot ltoes
    rhipjoint rfemur
    rfemur rtibia
    rtibia rfoot
    rfoot rtoes
    lowerback upperback
    upperback thorax
    thorax lowerneck lclavicle rclavicle
    lowerneck upperneck
    upperneck head
    lclavicle lhumerus
    lhumerus lradius
    lradius lwrist
    lwrist lhand lthumb
    lhand lfingers
    rclavicle rhumerus
    rhumerus rradius
    rradius rwrist
    rwrist rhand rthumb
    rhand rfingers
  end

#!OML:ASF F:\VICON\USERDATA\INSTALL\rory3\rory3.ASF
:FULLY-SPECIFIED
:DEGREES
358
root 4.82517 16.8439 -17.9268 29.4467 -35.0641 -17.3615
lowerback 14.8823 0.782521 0.226106
upperback 1.01951 1.53983 7.23342
thorax -7.49336 0.833886 7.38186
lowerneck -17.3027 -2.47228 -9.79024
upperneck 18.6076 -3.48497 11.9925
head 9.07151 -1.08605 5.34387
rclavicle 8.9304e-014 1.90833e-014
rhumerus -24.9624 -2.44731 -65.3287
rradius 83.309
rwrist -14.3979
rhand -16.7002 22.0713
rfingers 7.12502
rthumb 9.52464 -7.69347
lclavicle 8.9304e-014 1.90833e-014
lhumerus -16.5886 34.8209 30.1234
lradius 25.6516
lwrist -11.6053
lhand -7.18897 36.1306
lfingers 7.12502
lthumb 18.6891 65.2529
rfemur -26.191 -1.22386 27.068
rtibia 52.6454
rfoot -24.4088 -7.85773
rtoes -13.8632
lfemur -54.022 15.9627 -15.1147
ltibia 91.2945
lfoot -4.44209 -5.40884
ltoes 1.59349
359
root 4.74616 16.9575 -17.5668 29.5968 -35.0854 -17.9817
lowerback 14.6871 1.17607 0.233836
upperback 0.875688 2.07815 7.36058
thorax -7.61509 1.10473 7.40429
lowerneck -17.3147 -2.86249 -10.0261
upperneck 19.2253 -4.11869 12.3985
head 9.38042 -1.35639 5.46984
rclavicle 1.72327e-014 -3.58769e-014
rhumerus -24.598 -1.82771 -64.7738
rradius 84.9204
rwrist -14.4732
rhand -16.7196 22.2996
rfingers 7.12502
rthumb 9.50586 -7.46601
lclavicle 1.72327e-014 -3.58769e-014
lhumerus -18.1734 35.2559 28.0075
lradius 25.7057
lwrist -11.1743
lhand -8.07412 35.1337
lfingers 7.12502
lthumb 17.8375 64.3356
rfemur -23.872 -1.06988 26.9085
rtibia 50.4407
rfoot -21.9951 -7.67315
rtoes -17.3568
lfemur -55.5853 16.697 -14.4563
ltibia 90.1961
lfoot -5.25535 -5.44371
ltoes -0.326085
360
root 4.67454 17.0742 -17.2034 29.5869 -34.6961 -18.5612
lowerback 14.6779 1.37505 0.528353
upperback 0.710593 2.41602 7.51925
thorax -7.82946 1.26848 7.34024
lowerneck -17.2057 -3.18299 -10.0528
upperneck 19.7436 -4.67789 12.6218
head 9.6199 -1.5979 5.49821
rclavicle 9.55036e-014 -1.49089e-014
rhumerus -24.2541 -1.05925 -64.2081
rradius 86.4698
rwrist -14.432
rhand -16.3408 22.4953
rfingers 7.12502
rthumb 9.87138 -7.2533
lclavicle 9.55036e-014 -1.49089e-014
lhumerus -19.9444 35.5471 25.6738
lradius 25.4551
lwrist -11.1206
lhand -8.69781 32.9491
lfingers 7.12502
lthumb 17.2373 62.2046
rfemur -21.4406 -1.37847 26.8207
rtibia 48.212
rfoot -19.2106 -6.86392
rtoes -19.1164
lfemur -56.9237 16.9499 -13.7138
ltibia 88.8049
lfoot -5.88553 -5.27134
ltoes -4.79291
361
root 4.60054 17.195 -16.8312 29.4712 -34.2555 -19.1108
lowerback 14.7214 1.56398 0.921321
upperback 0.527319 2.7584 7.62044
thorax -8.08455 1.42902 7.15298
lowerneck -16.7376 -3.50023 -9.93814
upperneck 20.0099 -5.25605 12.7394
head 9.70213 -1.86015 5.44954
rclavicle -6.21948e-014 -6.6245e-014
rhumerus -23.9789 -0.535587 -63.6452
rradius 87.795
rwrist -13.9959
rhand -15.93 22.5825
rfingers 7.12502
rthumb 10.2676 -7.14687
lclavicle -6.21948e-014 -6.6245e-014
lhumerus -21.3487 35.1312 23.578
lradius 25.6728
lwrist -9.50889
lhand -8.52518 33.3729
lfingers 7.12502
lthumb 17.4035 62.6138
rfemur -19.0024 -1.57504 26.6767
rtibia 46.0384
rfoot -16.118 -5.68501
rtoes -19.2616
lfemur -57.9696 17.1172 -12.9501
ltibia 87.1056
lfoot -7.45501 -5.02131
ltoes -6.47515
362
root 4.52402 17.3224 -16.4383 29.2876 -33.8838 -19.6892
lowerback 14.6312 1.77972 1.38892
upperback 0.4112 3.1362 7.7162
thorax -8.18735 1.59871 6.9058
lowerneck -16.345 -3.85905 -9.9816
upperneck 20.3473 -5.89252 13.0189
head 9.84213 -2.14154 5.48278
rclavicle 9.96408e-014 -7.26558e-014
rhumerus -23.9405 0.37545 -62.8629
rradius 89.4244
rwrist -13.7722
rhand -16.2409 22.5362
rfingers 7.12502
rthumb 9.96779 -7.20777
lclavicle 9.96408e-014 -7.26558e-014
lhumerus -22.4873 34.4726 21.7956
lradius 26.1357
lwrist -7.90012
lhand -8.06696 34.9982
lfingers 7.12502
lthumb 17.8444 64.1995
rfemur -16.4824 -1.89376 26.427
rtibia 43.8214
rfoot -12.5014 -4.26413
rtoes -18.8653
lfemur -58.6598 17.2604 -12.1598
ltibia 85.1424
lfoot -8.187 -4.7161
ltoes -4.7987
363
root 4.4502 17.4367 -16.0362 29.1271 -33.4106 -20.3626
lowerback 14.3707 1.93349 2.07665
upperback 0.402584 3.44463 7.81733
thorax -8.05078 1.72048 6.55231
lowerneck -16.1516 -4.25401 -10.1082
upperneck 20.7055 -6.59873 13.4996
head 10.0518 -2.43317 5.59577
rclavicle 5.74488e-014 -3.46879e-014
rhumerus -23.9542 1.51064 -61.9729
rradius 91.3092
rwrist -13.8256
rhand -16.4051 22.364
rfingers 7.12502
rthumb 9.80938 -7.38751
lclavicle 5.74488e-014 -3.46879e-014
lhumerus -23.4495 34.3886 19.8978
lradius 26.0786
lwrist -7.87839
lhand -7.99973 34.98
lfingers 7.12502
lthumb 17.9091 64.1754
rfemur -14.0842 -2.45279 26.2467
rtibia 41.6525
rfoot -8.10407 -3.00446
rtoes -18.9906
lfemur -59.364 17.2797 -11.2247
ltibia 83.0558
lfoot -8.63523 -4.53223
ltoes -3.34871
364
root 4.37634 17.5641 -15.6255 28.836 -33.031 -20.8121
lowerback 14.2103 2.06151 2.42671
upperback 0.32073 3.68039 7.97666
thorax -8.06412 1.82544 6.47907
lowerneck -15.709 -4.63937 -10.4409
upperneck 21.1012 -7.25749 13.9319
head 10.2317 -2.73301 5.73657
rclavicle 3.72224e-014 -1.12313e-014
rhumerus -23.7068 2.38118 -61.0508
rradius 92.5984
rwrist -13.5071
rhand -16.005 22.1706
rfingers 7.12502
rthumb 10.1954 -7.56236
lclavicle 3.72224e-014 -1.12313e-014
lhumerus -24.4361 34.8428 17.8296
lradius 25.4994
lwrist -8.84784
lhand -8.30749 34.7641
lfingers 7.12502
lthumb 17.6129 63.9863
rfemur -11.8349 -2.89402 25.8164
rtibia 39.4215
rfoot -2.71834 -2.28974
rtoes -16.2011
lfemur -59.7516 17.2705 -10.5696
ltibia 80.5471
lfoot -9.12478 -4.27609
ltoes -3.32613
365
root 4.30106 17.673 -15.2109 28.4322 -32.7645 -21.0334
lowerback 14.0313 2.16334 2.39642
upperback 0.189859 3.83117 8.226
thorax -8.14371 1.90924 6.74733
lowerneck -15.4935 -4.98033 -10.7803
upperneck 21.9156 -7.78598 13.9616
head 10.5755 -3.00203 5.76225
rclavicle 5.24792e-014 -1.63003e-014
rhumerus -23.2603 3.22788 -60.0288
rradius 93.4673
rwrist -12.8962
rhand -15.7219 21.9151
rfingers 7.12502
rthumb 10.4684 -7.80423
lclavicle 5.24792e-014 -1.63003e-014
lhumerus -25.6141 34.7858 15.9583
lradius 25.134
lwrist -9.43096
lhand -8.79112 36.1685
lfingers 7.12502
lthumb 17.1475 65.4318
rfemur -9.79267 -3.23155 25.0523
rtibia 37.2165
rfoot 3.88539 -2.83754
rtoes -7.27573
lfemur -59.8895 17.3154 -10.241
ltibia 77.8577
lfoot -9.76209 -3.94373
ltoes -4.19622
366
root 4.22379 17.784 -14.7873 28.0347 -32.3382 -21.1887
lowerback 13.593 2.25111 2.5391
upperback 0.124171 3.9591 8.4055
thorax -7.98559 1.97133 6.84476
lowerneck -15.6674 -5.31429 -10.5193
upperneck 22.8074 -8.28207 13.4031
head 10.9708 -3.24957 5.4609
rclavicle 1.12313e-013 6.2816e-014
rhumerus -22.9002 3.8737 -58.9556
rradius 94.423
rwrist -12.4754
rhand -15.6461 21.5637
rfingers 7.12502
rthumb 10.5416 -8.15193
lclavicle 1.12313e-013 6.2816e-014
lhumerus -26.5597 34.1223 14.4391
lradius 25.1182
lwrist -9.48948
lhand -9.35031 37.374
lfingers 7.12502
lthumb 16.6092 66.6833
rfemur -7.84605 -3.56378 24.2532
rtibia 35.0117
rfoot 11.3012 -5.39931
rtoes 5.75226
lfemur -59.8775 17.169 -9.90358
ltibia 74.9418
lfoot -10.3814 -3.56173
ltoes -4.81318
367
root 4.14536 17.8934 -14.3611 27.5547 -31.8062 -21.345
lowerback 13.0862 2.36139 2.92589
upperback 0.160203 4.12499 8.43978
thorax -7.65122 2.03652 6.63156
lowerneck -14.7878 -5.62581 -10.705
upperneck 22.5681 -8.85225 13.8457
head 10.8252 -3.51633 5.57328
rclavicle 8.84592e-014 3.93594e-014
rhumerus -22.401 3.8542 -58.0793
rradius 95.0678
rwrist -11.9016
rhand -15.3378 21.5027
rfingers 7.12502
rthumb 10.8389 -8.19755
lclavicle 8.84592e-014 3.93594e-014
lhumerus -27.1036 33.221 13.1107
lradius 25.0875
lwrist -9.48968
lhand -9.9848 37.1257
lfingers 7.12502
lthumb 15.9983 66.4851
rfemur -5.67021 -3.68958 23.522
rtibia 32.9619
rfoot 16.6661 -9.4971
rtoes 18.5802
lfemur -59.7036 16.8775 -9.46612
ltibia 71.8532
lfoot -10.7876 -3.12254
ltoes -4.88895
368
root 4.06539 17.9812 -13.9316 26.9583 -31.4364 -21.5878
lowerback 12.6412 2.4618 3.29737
upperback 0.264967 4.26756 8.47315
thorax -7.27458 2.09133 6.43311
lowerneck -13.8043 -5.95416 -11.2505
upperneck 22.3111 -9.46263 14.6463
head 10.7032 -3.80505 5.88276
rclavicle 2.60408e-014 -4.45278e-014
rhumerus -21.5305 3.42036 -57.3851
rradius 95.0469
rwrist -10.8281
rhand -14.4315 21.8533
rfingers 7.12502
rthumb 11.713 -7.79928
lclavicle 2.60408e-014 -4.45278e-014
lhumerus -27.6467 32.2243 11.6258
lradius 24.7697
lwrist -9.2912
lhand -10.363 37.2417
lfingers 7.12502
lthumb 15.6341 66.6299
rfemur -3.07676 -3.83404 22.7213
rtibia 31.1217
rfoot 18.8504 -8.57661
rtoes 23.3302
lfemur -59.2835 16.8095 -9.03073
ltibia 68.7307
lfoot -11.2644 -2.72145
ltoes -5.51918
369
root 3.98654 18.048 -13.4986 26.3065 -31.2432 -21.791
lowerback 12.2003 2.58857 3.46497
upperback 0.259385 4.43194 8.59658
thorax -7.04475 2.1697 6.45207
lowerneck -12.4598 -6.19798 -12.1343
upperneck 22.1014 -9.92134 15.4386
head 10.5289 -4.07504 6.28369
rclavicle -4.81059e-014 -5.34731e-014
rhumerus -21.4231 4.2288 -56.0937
rradius 95.9932
rwrist -10.5271
rhand -14.314 21.466
rfingers 7.12502
rthumb 11.8263 -8.18006
lclavicle -4.81059e-014 -5.34731e-014
lhumerus -28.2986 31.1392 10.1069
lradius 24.4301
lwrist -8.83414
lhand -10.4813 38.631
lfingers 7.12502
lthumb 15.5201 68.0282
rfemur -0.403231 -4.04639 21.7545
rtibia 29.6222
rfoot 20.1161 -7.62193
rtoes 24.1391
lfemur -58.7037 16.8705 -8.70981
ltibia 65.5365
lfoot -11.8373 -2.31874
ltoes -6.46295
370
root 3.91136 18.1074 -13.0716 25.6166 -30.9294 -21.8475
lowerback 11.8103 2.72508 3.49823
upperback 0.187408 4.60471 8.75243
thorax -6.92992 2.25952 6.58394
lowerneck -11.4012 -6.4572 -12.5103
upperneck 22.1403 -10.3532 15.5318
head 10.4324 -4.34359 6.34053
rclavicle -1.41038e-013 -2.34566e-014
rhumerus -21.097 4.78427 -54.8579
rradius 96.5753
rwrist -10.4381
rhand -14.5854 21.0614
rfingers 7.12502
rthumb 11.5646 -8.59949
lclavicle -1.41038e-013 -2.34566e-014
lhumerus -28.7096 29.7501 9.03818
lradius 24.5001
lwrist -8.32875
lhand -10.6592 39.8746
lfingers 7.12502
lthumb 15.3488 69.2849
rfemur 2.06742 -3.94269 20.8797
rtibia 28.5508
rfoot 21.2491 -7.61349
rtoes 22.7335
lfemur -58.1457 16.7007 -8.40022
ltibia 62.1977
lfoot -12.188 -1.95598
ltoes -3.89474
